<?xml version="1.0" encoding="UTF-8" standalone="no"?>
<!-- Created with Inkscape (http://www.inkscape.org/) -->

<svg
   xmlns:dc="http://purl.org/dc/elements/1.1/"
   xmlns:cc="http://creativecommons.org/ns#"
   xmlns:rdf="http://www.w3.org/1999/02/22-rdf-syntax-ns#"
   xmlns:svg="http://www.w3.org/2000/svg"
   xmlns="http://www.w3.org/2000/svg"
   xmlns:xlink="http://www.w3.org/1999/xlink"
   xmlns:sodipodi="http://sodipodi.sourceforge.net/DTD/sodipodi-0.dtd"
   xmlns:inkscape="http://www.inkscape.org/namespaces/inkscape"
   version="1.1"
   width="48"
   height="48"
   id="svg4045"
   inkscape:version="0.48.2 r9819"
   sodipodi:docname="office-address-book.svg">
  <sodipodi:namedview
     pagecolor="#ffffff"
     bordercolor="#666666"
     borderopacity="1"
     objecttolerance="10"
     gridtolerance="10"
     guidetolerance="10"
     inkscape:pageopacity="0"
     inkscape:pageshadow="2"
     inkscape:window-width="1366"
     inkscape:window-height="744"
     id="namedview86"
     showgrid="false"
     inkscape:zoom="11.479167"
     inkscape:cx="24"
     inkscape:cy="24"
     inkscape:window-x="0"
     inkscape:window-y="24"
     inkscape:window-maximized="1"
     inkscape:current-layer="svg4045" />
  <defs
     id="defs4047">
    <linearGradient
       x1="23.99999"
       y1="14.915504"
       x2="23.99999"
       y2="32.595779"
       id="linearGradient3142-2"
       xlink:href="#linearGradient3195"
       gradientUnits="userSpaceOnUse"
       gradientTransform="matrix(0.89189189,0,0,1.0540541,2.5945964,-1.2972859)" />
    <linearGradient
       id="linearGradient3195">
      <stop
         id="stop3197"
         style="stop-color:#ffffff;stop-opacity:1"
         offset="0" />
      <stop
         id="stop3199"
         style="stop-color:#ffffff;stop-opacity:0.23529412"
         offset="0.12291458" />
      <stop
         id="stop3201"
         style="stop-color:#ffffff;stop-opacity:0.15686275"
         offset="0.93706012" />
      <stop
         id="stop3203"
         style="stop-color:#ffffff;stop-opacity:0.39215687"
         offset="1" />
    </linearGradient>
    <radialGradient
       cx="10.90426"
       cy="8.4497671"
       r="19.99999"
       fx="10.90426"
       fy="8.4497671"
       id="radialGradient3147"
       xlink:href="#linearGradient2867-449-88-871-390-598-476-591-434-148-57-177-641-289-620-227-114-444-680-744-8-7"
       gradientUnits="userSpaceOnUse"
       gradientTransform="matrix(0,1.4781634,-1.2641963,0,36.682274,-3.6315525)" />
    <linearGradient
       id="linearGradient2867-449-88-871-390-598-476-591-434-148-57-177-641-289-620-227-114-444-680-744-8-7">
      <stop
         id="stop5430-8-6"
         style="stop-color:#5f5f5f;stop-opacity:1"
         offset="0" />
      <stop
         id="stop5432-3-5"
         style="stop-color:#4f4f4f;stop-opacity:1"
         offset="0.26238" />
      <stop
         id="stop5434-1-6"
         style="stop-color:#3b3b3b;stop-opacity:1"
         offset="0.704952" />
      <stop
         id="stop5436-8-9"
         style="stop-color:#2b2b2b;stop-opacity:1"
         offset="1" />
    </linearGradient>
    <linearGradient
       x1="24"
       y1="44"
       x2="24"
       y2="3.8990016"
       id="linearGradient3149"
       xlink:href="#linearGradient3707-319-631-407-324-616-674-812-821-107-178-392-400-6-7"
       gradientUnits="userSpaceOnUse"
       gradientTransform="matrix(1,0,0,1.0512821,2.0000013,-1.2307699)" />
    <linearGradient
       id="linearGradient3707-319-631-407-324-616-674-812-821-107-178-392-400-6-7">
      <stop
         id="stop5440-4-4"
         style="stop-color:#272727;stop-opacity:1"
         offset="0" />
      <stop
         id="stop5442-3-5"
         style="stop-color:#454545;stop-opacity:1"
         offset="1" />
    </linearGradient>
    <linearGradient
       x1="23.99999"
       y1="4.999989"
       x2="23.99999"
       y2="43"
       id="linearGradient3142"
       xlink:href="#linearGradient3731"
       gradientUnits="userSpaceOnUse"
       gradientTransform="matrix(0.89189189,0,0,1.0540541,2.5945964,-1.2972859)" />
    <linearGradient
       id="linearGradient3731">
      <stop
         id="stop3733"
         style="stop-color:#ffffff;stop-opacity:1"
         offset="0" />
      <stop
         id="stop3735"
         style="stop-color:#ffffff;stop-opacity:0.23529412"
         offset="0.02706478" />
      <stop
         id="stop3737"
         style="stop-color:#ffffff;stop-opacity:0.15686275"
         offset="0.97377032" />
      <stop
         id="stop3739"
         style="stop-color:#ffffff;stop-opacity:0.39215687"
         offset="1" />
    </linearGradient>
    <radialGradient
       cx="7.4956832"
       cy="8.4497671"
       r="19.99999"
       fx="7.4956832"
       fy="8.4497671"
       id="radialGradient3145"
       xlink:href="#linearGradient2867-449-88-871-390-598-476-591-434-148-57-177-641-289-620-227-114-444-680-744-8"
       gradientUnits="userSpaceOnUse"
       gradientTransform="matrix(1.9428467e-8,2.4568358,-2.4722567,-4.5264291e-8,46.890103,-14.303252)" />
    <linearGradient
       id="linearGradient2867-449-88-871-390-598-476-591-434-148-57-177-641-289-620-227-114-444-680-744-8">
      <stop
         id="stop5430-8"
         style="stop-color:#5f5f5f;stop-opacity:1"
         offset="0" />
      <stop
         id="stop5432-3"
         style="stop-color:#4f4f4f;stop-opacity:1"
         offset="0.26238" />
      <stop
         id="stop5434-1"
         style="stop-color:#3b3b3b;stop-opacity:1"
         offset="0.704952" />
      <stop
         id="stop5436-8"
         style="stop-color:#2b2b2b;stop-opacity:1"
         offset="1" />
    </linearGradient>
    <linearGradient
       x1="24"
       y1="44"
       x2="24"
       y2="3.8990016"
       id="linearGradient3147"
       xlink:href="#linearGradient3707-319-631-407-324-616-674-812-821-107-178-392-400-6"
       gradientUnits="userSpaceOnUse"
       gradientTransform="matrix(1,0,0,1.0512821,2.0000013,-1.2307699)" />
    <linearGradient
       id="linearGradient3707-319-631-407-324-616-674-812-821-107-178-392-400-6">
      <stop
         id="stop5440-4"
         style="stop-color:#272727;stop-opacity:1"
         offset="0" />
      <stop
         id="stop5442-3"
         style="stop-color:#454545;stop-opacity:1"
         offset="1" />
    </linearGradient>
    <radialGradient
       cx="24.501682"
       cy="6.6475959"
       r="17.49832"
       fx="24.501682"
       fy="6.6475959"
       id="radialGradient3829"
       xlink:href="#linearGradient8967"
       gradientUnits="userSpaceOnUse"
       gradientTransform="matrix(0,2.744544,-3.1834145,0,45.663735,-64.07083)" />
    <linearGradient
       id="linearGradient8967">
      <stop
         id="stop8969"
         style="stop-color:#ddcfbd;stop-opacity:1"
         offset="0" />
      <stop
         id="stop8971"
         style="stop-color:#856f50;stop-opacity:1"
         offset="1" />
    </linearGradient>
    <linearGradient
       x1="32.901409"
       y1="4.6481781"
       x2="32.901409"
       y2="61.481758"
       id="linearGradient3153"
       xlink:href="#linearGradient3319"
       gradientUnits="userSpaceOnUse"
       gradientTransform="matrix(0.7007108,0,0,0.73712869,2.0789348,-0.1244263)" />
    <linearGradient
       id="linearGradient3319">
      <stop
         id="stop3321"
         style="stop-color:#a79071;stop-opacity:1"
         offset="0" />
      <stop
         id="stop3323"
         style="stop-color:#6f5d45;stop-opacity:1"
         offset="1" />
    </linearGradient>
    <linearGradient
       x1="10.654308"
       y1="1"
       x2="10.654308"
       y2="3"
       id="linearGradient3156"
       xlink:href="#linearGradient2346"
       gradientUnits="userSpaceOnUse" />
    <linearGradient
       id="linearGradient2346">
      <stop
         id="stop2348"
         style="stop-color:#eeeeee;stop-opacity:1"
         offset="0" />
      <stop
         id="stop2350"
         style="stop-color:#d9d9da;stop-opacity:1"
         offset="1" />
    </linearGradient>
    <linearGradient
       x1="24"
       y1="44"
       x2="24"
       y2="3.8990016"
       id="linearGradient3158"
       xlink:href="#linearGradient3707-319-631-407-324-616-674-812-821-107-178-392-400-6-2"
       gradientUnits="userSpaceOnUse"
       gradientTransform="matrix(1,0,0,0.10256346,2.0002611,0.03848905)" />
    <linearGradient
       id="linearGradient3707-319-631-407-324-616-674-812-821-107-178-392-400-6-2">
      <stop
         id="stop5440-4-8"
         style="stop-color:#272727;stop-opacity:1"
         offset="0" />
      <stop
         id="stop5442-3-8"
         style="stop-color:#454545;stop-opacity:1"
         offset="1" />
    </linearGradient>
    <linearGradient
       x1="24.62738"
       y1="3.1234391"
       x2="24.640038"
       y2="4.882647"
       id="linearGradient3161"
       xlink:href="#linearGradient2346"
       gradientUnits="userSpaceOnUse"
       gradientTransform="matrix(1.0040453,0,0,1.5380658,1.2232785,-4.0400179)" />
    <linearGradient
       x1="5.2122574"
       y1="0.065301567"
       x2="54.887218"
       y2="0.065301567"
       id="linearGradient3163"
       xlink:href="#linearGradient4652"
       gradientUnits="userSpaceOnUse"
       gradientTransform="matrix(0.7162781,0,0,0.7471593,2.1541503,-0.05165168)" />
    <linearGradient
       id="linearGradient4652">
      <stop
         id="stop4654"
         style="stop-color:#9b876c;stop-opacity:1"
         offset="0" />
      <stop
         id="stop4656"
         style="stop-color:#9b876c;stop-opacity:1"
         offset="0.95970964" />
      <stop
         id="stop4658"
         style="stop-color:#c2c2c2;stop-opacity:1"
         offset="0.96326458" />
      <stop
         id="stop4660"
         style="stop-color:#c2c2c2;stop-opacity:1"
         offset="1" />
    </linearGradient>
    <radialGradient
       cx="4.9929786"
       cy="43.5"
       r="2.5"
       fx="4.9929786"
       fy="43.5"
       id="radialGradient3013"
       xlink:href="#linearGradient3688-166-749"
       gradientUnits="userSpaceOnUse"
       gradientTransform="matrix(2.003784,0,0,1.4,27.98813,-17.4)" />
    <linearGradient
       id="linearGradient3688-166-749">
      <stop
         id="stop2883"
         style="stop-color:#181818;stop-opacity:1"
         offset="0" />
      <stop
         id="stop2885"
         style="stop-color:#181818;stop-opacity:0"
         offset="1" />
    </linearGradient>
    <radialGradient
       cx="4.9929786"
       cy="43.5"
       r="2.5"
       fx="4.9929786"
       fy="43.5"
       id="radialGradient3015"
       xlink:href="#linearGradient3688-464-309"
       gradientUnits="userSpaceOnUse"
       gradientTransform="matrix(2.003784,0,0,1.4,-20.01187,-104.4)" />
    <linearGradient
       id="linearGradient3688-464-309">
      <stop
         id="stop2889"
         style="stop-color:#181818;stop-opacity:1"
         offset="0" />
      <stop
         id="stop2891"
         style="stop-color:#181818;stop-opacity:0"
         offset="1" />
    </linearGradient>
    <linearGradient
       id="linearGradient3702-501-757">
      <stop
         id="stop2895"
         style="stop-color:#181818;stop-opacity:0"
         offset="0" />
      <stop
         id="stop2897"
         style="stop-color:#181818;stop-opacity:1"
         offset="0.5" />
      <stop
         id="stop2899"
         style="stop-color:#181818;stop-opacity:0"
         offset="1" />
    </linearGradient>
    <linearGradient
       x1="25.058096"
       y1="47.027729"
       x2="25.058096"
       y2="39.999443"
       id="linearGradient4043"
       xlink:href="#linearGradient3702-501-757"
       gradientUnits="userSpaceOnUse" />
    <radialGradient
       gradientTransform="matrix(1,0,0,0.341176,0,3.047059)"
       gradientUnits="userSpaceOnUse"
       xlink:href="#linearGradient8838"
       id="radialGradient3757"
       fy="4.625"
       fx="62.625"
       r="10.625"
       cy="4.625"
       cx="62.625" />
    <linearGradient
       id="linearGradient8838">
      <stop
         offset="0"
         style="stop-color:#000000;stop-opacity:1"
         id="stop8840" />
      <stop
         offset="1"
         style="stop-color:#000000;stop-opacity:0"
         id="stop8842" />
    </linearGradient>
    <linearGradient
       id="linearGradient3707-319-631">
      <stop
         offset="0"
         style="stop-color:#254b6d;stop-opacity:1"
         id="stop4637" />
      <stop
         offset="0.5"
         style="stop-color:#415b73;stop-opacity:1"
         id="stop4639" />
      <stop
         offset="1"
         style="stop-color:#6195b5;stop-opacity:1"
         id="stop4641" />
    </linearGradient>
    <linearGradient
       gradientTransform="matrix(0.98001402,0,0,0.97999168,0.08994011,0.8703621)"
       gradientUnits="userSpaceOnUse"
       xlink:href="#linearGradient3707-319-631"
       id="linearGradient3713"
       y2="2.6887112"
       x2="20"
       y1="43"
       x1="20" />
    <linearGradient
       id="linearGradient2867-449-88-871-390-598-476-591-434-148">
      <stop
         offset="0"
         style="stop-color:#51cfee;stop-opacity:1"
         id="stop4627" />
      <stop
         offset="0.26238"
         style="stop-color:#49a3d2;stop-opacity:1"
         id="stop4629" />
      <stop
         offset="0.704952"
         style="stop-color:#3470b4;stop-opacity:1"
         id="stop4631" />
      <stop
         offset="1"
         style="stop-color:#273567;stop-opacity:1"
         id="stop4633" />
    </linearGradient>
    <radialGradient
       gradientTransform="matrix(0,3.5234091,-3.5234073,0,-6.7439676,-205.79862)"
       gradientUnits="userSpaceOnUse"
       xlink:href="#linearGradient2867-449-88-871-390-598-476-591-434-148"
       id="radialGradient3705"
       fy="-8.7256308"
       fx="61.240059"
       r="9.7552834"
       cy="-8.7256308"
       cx="61.240059" />
    <linearGradient
       id="linearGradient4873">
      <stop
         offset="0"
         style="stop-color:#ffffff;stop-opacity:1"
         id="stop4875" />
      <stop
         offset="1"
         style="stop-color:#ffffff;stop-opacity:0"
         id="stop4877" />
    </linearGradient>
    <linearGradient
       gradientTransform="matrix(2.1153734,0,0,2.1153252,-107.57708,31.426557)"
       gradientUnits="userSpaceOnUse"
       xlink:href="#linearGradient4873"
       id="linearGradient3697"
       y2="-1.4615115"
       x2="62.200409"
       y1="-12.489107"
       x1="62.200409" />
    <linearGradient
       id="linearGradient4845">
      <stop
         offset="0"
         style="stop-color:#ffffff;stop-opacity:1"
         id="stop4847" />
      <stop
         offset="1"
         style="stop-color:#b6b6b6;stop-opacity:1"
         id="stop4849" />
    </linearGradient>
    <radialGradient
       gradientTransform="matrix(-2.643979,0,2.93653e-8,2.534421,78.72514,-37.986139)"
       gradientUnits="userSpaceOnUse"
       xlink:href="#linearGradient4845"
       id="radialGradient2418"
       fy="24.149399"
       fx="17.81411"
       r="9.125"
       cy="24.149399"
       cx="17.81411" />
  </defs>
  <metadata
     id="metadata4050">
    <rdf:RDF>
      <cc:Work
         rdf:about="">
        <dc:format>image/svg+xml</dc:format>
        <dc:type
           rdf:resource="http://purl.org/dc/dcmitype/StillImage" />
        <dc:title />
      </cc:Work>
    </rdf:RDF>
  </metadata>
  <g
     id="layer1">
    <g
       transform="matrix(1.0526316,0,0,0.57142859,-1.2631579,19.142856)"
       id="g3712"
       style="opacity:0.4">
      <rect
         width="5"
         height="7"
         x="38"
         y="40"
         id="rect2801"
         style="fill:url(#radialGradient3013);fill-opacity:1;stroke:none" />
      <rect
         width="5"
         height="7"
         x="-10"
         y="-47"
         transform="scale(-1,-1)"
         id="rect3696"
         style="fill:url(#radialGradient3015);fill-opacity:1;stroke:none" />
      <rect
         width="28"
         height="7.0000005"
         x="10"
         y="40"
         id="rect3700"
         style="fill:url(#linearGradient4043);fill-opacity:1;stroke:none" />
    </g>
    <path
       d="M 40.838991,3.217154 C 40.543588,2.2259354 40.727705,1.4453462 40.56455,0.49999976 l -30.239763,0 0.178478,3.00000004"
       id="path2723"
       style="fill:url(#linearGradient3161);fill-opacity:1;stroke:url(#linearGradient3163);stroke-width:1.01739752;stroke-linecap:butt;stroke-linejoin:round;stroke-miterlimit:0;stroke-opacity:1;stroke-dasharray:none;stroke-dashoffset:0;display:inline" />
    <path
       d="m 11.50026,4.4999996 -4.0000002,0 c -0.5708481,0 -1,-0.042333 -1,-0.09756 l 0,-2.7964211 c 0,-0.88791952 0.5590322,-1.10599346 1.2908943,-1.10599346 l 3.7091059,0"
       id="rect5505-21-3-9"
       style="color:#000000;fill:url(#linearGradient3156);fill-opacity:1;fill-rule:nonzero;stroke:url(#linearGradient3158);stroke-width:0.99999994;stroke-linecap:round;stroke-linejoin:round;stroke-miterlimit:4;stroke-opacity:1;stroke-dasharray:none;stroke-dashoffset:0;marker:none;visibility:visible;display:inline;overflow:visible;enable-background:accumulate" />
    <rect
       width="33.977596"
       height="40.980957"
       rx="1"
       ry="1"
       x="7.5128837"
       y="3.5095203"
       id="rect2719"
       style="fill:url(#radialGradient3829);fill-opacity:1;stroke:url(#linearGradient3153);stroke-width:1.01904118;stroke-linecap:round;stroke-linejoin:round;stroke-miterlimit:0;stroke-opacity:1;stroke-dasharray:none;stroke-dashoffset:0;display:inline" />
    <path
       d="m 11.5,3.4999998 c 0,0 0,28.5091172 0,41.0000002 l -4,0 c -0.5708481,0 -1,-0.43395 -1,-1 l 0,-40.0000002 z"
       id="rect5505-21-3"
       style="color:#000000;fill:url(#radialGradient3145);fill-opacity:1;fill-rule:nonzero;stroke:url(#linearGradient3147);stroke-width:1;stroke-linecap:round;stroke-linejoin:round;stroke-miterlimit:4;stroke-opacity:1;stroke-dasharray:none;stroke-dashoffset:0;marker:none;visibility:visible;display:inline;overflow:visible;enable-background:accumulate" />
    <rect
       width="33"
       height="39"
       x="7.5"
       y="4.5000005"
       id="rect6741-0"
       style="opacity:0.5;fill:none;stroke:url(#linearGradient3142);stroke-width:1;stroke-linecap:round;stroke-linejoin:round;stroke-miterlimit:4;stroke-opacity:1;stroke-dasharray:none;stroke-dashoffset:0" />
  </g>
  <g
     id="layer1-4"
     transform="matrix(0.5890476,0,0,0.5890476,11.95351,8.6222685)">
    <path
       style="opacity:0.4;fill:url(#radialGradient3757);fill-opacity:1;fill-rule:evenodd;stroke:none;stroke-width:0.99999988;marker:none;visibility:visible;display:inline;overflow:visible"
       id="path8836"
       transform="matrix(2.1647059,0,0,2.5636643,-111.56471,26.849769)"
       d="m 73.25,4.625 a 10.625,3.625 0 1 1 -21.25,0 10.625,3.625 0 1 1 21.25,0 z"
       inkscape:connector-curvature="0" />
    <path
       style="fill:url(#radialGradient3705);fill-opacity:1;fill-rule:nonzero;stroke:url(#linearGradient3713);stroke-width:1;stroke-miterlimit:4;stroke-dasharray:none"
       id="path6495"
       d="M 43.500003,23.999309 C 43.500003,34.769208 34.768912,43.5 24.000248,43.5 13.230599,43.5 4.5000032,34.769109 4.5000032,23.999309 4.5000032,13.229904 13.230599,4.5 24.000248,4.5 c 10.768664,0 19.499755,8.729904 19.499755,19.499309 l 0,0 z"
       inkscape:connector-curvature="0" />
    <path
       style="opacity:0.4;fill:#000000;fill-opacity:1;fill-rule:nonzero;stroke:none"
       id="path6534"
       d="m 24.329633,5.218182 -2.362344,0.2704567 -2.59858,0.7099494 c 0.221353,-0.077615 0.445595,-0.1623374 0.674956,-0.2366499 L 19.739934,5.4210246 18.727501,5.5900601 18.221284,6.0633596 17.445085,6.1647809 16.736382,6.502852 16.398905,6.6718876 16.29766,6.807116 15.791444,6.9085373 15.487716,7.5508723 15.08274,6.7395017 l -0.134989,0.3380711 0.0675,0.9127919 -0.641208,0.5409137 -0.371225,0.9804061 0.7762,0 0.303728,-0.642335 0.101245,-0.2366498 c 0.341288,-0.241775 0.66483,-0.5110331 1.012433,-0.7437563 l 0.809946,0.2704568 c 0.527335,0.3588995 1.058376,0.7234732 1.586147,1.0818274 L 19.368709,8.5312784 18.491266,8.1594002 18.086294,7.3480297 16.601391,7.1789941 16.567641,7.0099586 17.208847,7.145187 17.580075,6.7733087 18.390021,6.6042734 C 18.581694,6.5108897 18.770243,6.44363 18.963732,6.3676236 l -0.506216,0.4732995 1.82238,1.250863 0,0.7437562 -0.708703,0.7099493 0.944937,1.8931994 0.641208,-0.371881 0.809948,-1.2508614 c 1.138725,-0.3526792 2.165016,-0.7630693 3.239789,-1.2508632 l -0.0675,0.4732995 0.539963,0.3718782 0.944939,-0.6423349 -0.47247,-0.5409137 -0.641209,0.3718781 -0.202486,-0.067613 c 0.04651,-0.02129 0.08828,-0.045973 0.13499,-0.067613 L 26.388247,6.0295525 24.329633,5.218182 z m -9.246893,3.6511675 0.776199,0.5409136 0.641209,0 0,-0.6423349 L 15.72395,8.429857 15.08274,8.8693495 z M 33.002811,8.429857 31.619153,8.7679282 30.741712,9.342649 l 0,0.5071058 -1.383659,0.8789842 0.269983,1.31848 0.809946,-0.574723 0.506216,0.574723 0.573714,0.338071 0.371224,-0.980408 -0.202486,-0.57472 0.202486,-0.405687 0.809948,-0.7437548 0.371225,0 -0.371225,0.8113728 0,0.743754 c 0.333836,-0.09103 0.6708,-0.126483 1.012433,-0.169037 l -0.944938,0.676145 -0.0675,0.405683 -1.079929,0.912794 -1.113678,-0.270459 0,-0.642335 -0.506216,0.338072 0.236235,0.574722 -0.809947,0 -0.438721,0.743756 -0.539965,0.608528 -0.978685,0.202842 0.573712,0.574721 0.134991,0.57472 -0.708703,0 -0.944938,0.507108 0,1.48751 0.438721,0 0.404973,0.439494 0.91119,-0.439494 0.337478,-0.912791 0.674956,-0.405685 0.134991,-0.338071 1.079928,-0.270457 0.60746,0.676142 0.641209,0.338071 -0.371227,0.743758 0.573715,-0.169037 0.303728,-0.743757 -0.74245,-0.845177 0.303729,0 0.742451,0.608528 0.134992,0.811371 0.641207,0.743757 0.168739,-1.081827 0.337478,-0.169037 c 0.359225,0.373574 0.642383,0.83043 0.944938,1.250864 l 1.113677,0.06762 0.641207,0.405686 -0.303729,0.439492 -0.641208,0.574721 -0.944939,0 -1.248667,-0.405684 -0.641208,0.06762 -0.472469,0.540915 -1.349912,-1.352286 -0.944937,-0.270456 -1.383659,0.169036 -1.21492,0.33807 c -0.693063,0.7871 -1.402636,1.582869 -2.058616,2.400307 l -0.776198,1.893195 0.371226,0.405687 -0.674956,0.980406 0.742451,1.724162 c 0.617799,0.700089 1.239228,1.395452 1.856128,2.09604 l 0.91119,-0.777564 0.371226,0.473301 0.978687,-0.642335 0.337477,0.371878 0.978685,0 0.573713,0.642335 -0.337478,1.149442 0.674955,0.777564 -0.03375,1.352283 0.506216,0.980406 -0.371225,0.845178 c -0.03619,0.60617 -0.0675,1.18551 -0.0675,1.791777 0.297757,0.821342 0.59628,1.640668 0.877443,2.467918 l 0.202487,1.318476 0,0.676143 0.539963,0 0.7762,-0.507106 0.944939,0 1.417406,-1.588934 -0.168739,-0.540915 0.944939,-0.845177 -0.708705,-0.777563 0.843694,-0.676141 0.809948,-0.507109 0.371225,-0.405685 -0.236234,-0.912791 c 0,-0.768475 2e-6,-1.530306 0,-2.298884 l 0.641209,-1.419897 0.809945,-0.878985 0.877443,-2.163655 0,-0.574721 c -0.436643,0.0551 -0.855168,0.10478 -1.282416,0.13523 l 0.877442,-0.878986 1.21492,-0.81137 0.641209,-0.743758 0,-0.811369 C 41.631793,22.01604 41.484928,21.720356 41.338501,21.44561 l -0.573712,0.676141 -0.438721,-0.507105 -0.641209,-0.507107 0,-1.048021 0.742452,0.845178 0.843696,-0.101421 c 0.380615,0.346139 0.746089,0.65392 1.079927,1.04802 l 0.539978,-0.608545 c 0,-0.655131 -0.736573,-3.889319 -2.328596,-6.626192 -1.592024,-2.735972 -4.387213,-5.240102 -4.387211,-5.240102 l -0.202488,0.3718783 -0.742451,0.8113707 -0.944937,-0.9804063 0.944937,0 L 35.668888,9.1059992 33.914003,8.7679282 33.002811,8.429857 z M 12.720395,8.8693495 12.382918,9.7483343 c 0,0 -0.590841,0.097717 -0.74245,0.1352286 -1.9362043,1.7873441 -5.8406714,5.6641681 -6.7495557,12.9481221 0.035987,0.168879 0.6412078,1.14944 0.6412078,1.14944 l 1.4849023,0.878986 1.4849024,0.405684 0.6412079,0.777564 0.9786853,0.743756 0.573712,-0.101421 0.404974,0.202844 0,0.135226 -0.539965,1.521321 -0.438721,0.642336 0.134991,0.304263 -0.3374777,1.217057 1.2486677,2.298882 1.282416,1.115635 0.573711,0.81137 -0.0675,1.690355 0.404974,0.946598 -0.404974,1.825586 c 0,0 -0.05404,-0.01501 0,0.169036 0.05452,0.184134 2.25593,1.422835 2.396091,1.318476 0.139681,-0.106305 0.269983,-0.202843 0.269983,-0.202843 l -0.13499,-0.405685 0.573712,-0.540913 0.202486,-0.574722 0.911191,-0.304265 0.708702,-1.757968 -0.202486,-0.4733 0.472468,-0.743756 1.07993,-0.236649 0.539965,-1.28467 -0.134992,-1.588935 0.843695,-1.183247 0.13499,-1.217056 c -1.15759,-0.575052 -2.293316,-1.165913 -3.442272,-1.75797 l -0.573713,-1.115634 -1.046181,-0.23665 -0.573712,-1.521321 -1.383659,0.169035 -1.214921,-0.878983 -1.282415,1.115634 0,0.169036 C 10.716387,26.202752 10.261353,26.186409 9.9193333,25.975746 l -0.2699819,-0.811371 0,-0.878985 -0.8774423,0.101421 c 0.070612,-0.559892 0.1651315,-1.13056 0.2362324,-1.690355 l -0.5062167,0 -0.5062167,0.642335 -0.4724689,0.23665 -0.7087034,-0.405685 -0.067496,-0.878985 0.1349912,-0.946599 1.0461812,-0.811371 0.8436945,0 0.1687389,-0.473299 1.0461817,0.236648 0.7761987,0.980407 0.134991,-1.622742 1.349911,-1.115633 0.472468,-1.183248 1.012435,-0.405685 0.539964,-0.811372 1.282416,-0.23665 0.641208,-0.946599 c -0.634667,0 -1.288957,0 -1.923624,0 l 1.214921,-0.574721 0.843693,0 1.07993,-0.371877 0.202487,1.04802 0.472469,-0.743757 -0.539966,-0.371878 0.134992,-0.439491 -0.438721,-0.405687 -0.47247,-0.135228 0.134992,-0.507106 -0.371226,-0.709948 -0.843695,0.33807 0.134992,-0.642334 -0.978686,-0.574722 -0.776198,1.352284 0.0675,0.4733 -0.776198,0.338071 -0.472469,1.04802 -0.236234,-0.980407 -1.316164,-0.540913 -0.236234,-0.743756 1.788632,-1.014213 0.776198,-0.743757 0.0675,-0.8789846 -0.438721,-0.2366498 -0.573713,-0.067613 z m 14.477799,1.6227435 0,0.54091 0.30373,0.338072 0,0.811371 -0.168739,1.081827 0.877442,-0.169036 0.641209,-0.642334 -0.573713,-0.540915 c -0.186049,-0.496308 -0.3746,-0.943871 -0.607459,-1.419895 l -0.47247,0 z m -0.742452,1.081824 -0.539963,0.169038 0.13499,0.980405 0.708703,-0.371881 -0.30373,-0.777562 z m 9.888101,8.89127 0.809946,0.946598 0.978686,2.096042 0.607459,0.67614 -0.303728,0.709952 0.539964,0.642335 c -0.247792,0.01643 -0.487764,0.03381 -0.742451,0.03381 -0.462673,-0.973935 -0.828843,-1.956133 -1.181173,-2.975025 l -0.60746,-0.676142 -0.337478,-1.217056 0.236235,-0.23665 z"
       inkscape:connector-curvature="0" />
    <path
       style="opacity:0.4;fill:none;stroke:url(#linearGradient3697);stroke-width:1.0000006;stroke-miterlimit:4;stroke-opacity:1;stroke-dasharray:none"
       id="path8655"
       d="m 42.500001,23.999343 c 0,10.217597 -8.283342,18.500655 -18.499766,18.500655 -10.217359,0 -18.5002317,-8.283152 -18.5002317,-18.500655 0,-10.217125 8.2828727,-18.4993427 18.5002317,-18.4993427 10.216424,0 18.499766,8.2822177 18.499766,18.4993427 l 0,0 z"
       inkscape:connector-curvature="0" />
  </g>
</svg>
